<?xml version="1.0" standalone="no"?>
<!DOCTYPE svg PUBLIC "-//W3C//DTD SVG 20010904//EN"
 "http://www.w3.org/TR/2001/REC-SVG-20010904/DTD/svg10.dtd">
<svg version="1.0" xmlns="http://www.w3.org/2000/svg"
 width="30.000000pt" height="30.000000pt" viewBox="0 0 30.000000 30.000000"
 preserveAspectRatio="xMidYMid meet">
<metadata>
Created by potrace 1.10, written by Peter Selinger 2001-2011
</metadata>
<g transform="translate(0.000000,30.000000) scale(0.100000,-0.100000)"
fill="#000000" stroke="none">
<path d="M55 270 c-8 -12 23 -65 33 -56 3 4 0 12 -6 18 -7 7 -12 16 -12 22 0
5 7 1 15 -10 8 -10 15 -14 15 -8 0 18 -37 47 -45 34z"/>
<path d="M125 246 c-15 -14 -24 -30 -20 -36 4 -7 -2 -14 -14 -17 -12 -3 -21
-12 -21 -19 0 -17 -11 -20 100 20 52 18 96 39 98 46 3 9 -3 11 -19 7 -14 -3
-32 0 -43 9 -28 20 -51 17 -81 -10z"/>
<path d="M165 176 c-75 -26 -85 -33 -85 -54 0 -9 -9 -28 -20 -42 -36 -46 -29
-50 85 -50 88 0 105 2 105 15 0 9 -13 24 -30 33 -36 21 -37 24 -5 56 25 25 32
51 18 59 -5 2 -35 -5 -68 -17z m5 -51 c-10 -12 -10 -21 -2 -40 11 -25 11 -25
-34 -25 -40 0 -45 2 -39 18 4 9 9 24 12 33 3 9 19 21 36 26 38 12 44 9 27 -12z"/>
</g>
</svg>
